<svg xmlns="http://www.w3.org/2000/svg" xml:space="preserve" width="2.83333in" height="2.83333in" version="1.1" style="shape-rendering:geometricPrecision; text-rendering:geometricPrecision; image-rendering:optimizeQuality; fill-rule:evenodd; clip-rule:evenodd" viewBox="0 0 2833 2833" xmlns:xlink="http://www.w3.org/1999/xlink">
 <defs>
  <style type="text/css">
   
    .fil16 {fill:#3ED3D3}
    .fil13 {fill:#46FFFF}
    .fil12 {fill:#4D4D4D}
    .fil7 {fill:#4DAB8D}
    .fil15 {fill:#519022}
    .fil14 {fill:#5EAC24}
    .fil6 {fill:#5FD3AE}
    .fil5 {fill:#A3561F}
    .fil0 {fill:#A8EDBF}
    .fil8 {fill:#B3EAD8}
    .fil4 {fill:#B55D24}
    .fil10 {fill:#CC383B}
    .fil9 {fill:#FC4549}
    .fil11 {fill:#FC787A}
    .fil18 {fill:#FF5C00}
    .fil17 {fill:#FF7100}
    .fil2 {fill:#FF8B00}
    .fil1 {fill:#FFAB00}
    .fil3 {fill:#FFDB92}
   
  </style>
 </defs>
 <g id="Layer_x0020_1">
  <metadata id="CorelCorpID_0Corel-Layer"></metadata>
  <circle class="fil0" cx="1417" cy="1417" r="1417"></circle>
  <g id="_534490232">
   <g>
    <path class="fil1" d="M1225 1817c-19,0 -144,0 -163,0 -15,0 -27,-12 -27,-27l0 -1018c0,-15 12,-28 27,-28l163 0c16,0 28,13 28,28l0 1018c0,15 -12,27 -28,27z"></path>
    <polygon class="fil2" points="1035,973 1035,917 1253,917 1253,973 "></polygon>
    <path class="fil3" d="M1142 1523c-16,0 -28,-13 -28,-28l0 -325c0,-16 12,-28 28,-28 15,0 28,12 28,28l0 325c0,15 -13,28 -28,28z"></path>
   </g>
   <path class="fil4" d="M952 2175l-194 0c-13,0 -23,-10 -23,-22l0 -162c0,-13 10,-23 23,-23 12,0 22,10 22,23l149 0c0,-13 10,-23 23,-23 13,0 23,10 23,23l0 162c0,12 -10,22 -23,22z"></path>
   <path class="fil4" d="M2028 2175l-198 0c-13,0 -23,-10 -23,-22l0 -162c0,-13 10,-23 23,-23 13,0 23,10 23,23l152 0c0,-13 10,-23 23,-23 12,0 22,10 22,23l0 162c0,12 -10,22 -22,22z"></path>
   <path class="fil5" d="M735 2039l0 -48c0,-13 10,-23 23,-23 12,0 22,10 22,23l149 0c0,-13 10,-23 23,-23 13,0 23,10 23,23l0 48 -240 0z"></path>
   <path class="fil5" d="M1807 2039l0 -48c0,-13 10,-23 23,-23 13,0 23,10 23,23l152 0c0,-13 10,-23 23,-23 12,0 22,10 22,23l0 48 -243 0z"></path>
   <path class="fil6" d="M789 1843c-19,0 -144,0 -163,0 -16,0 -28,-12 -28,-27l3 -1072c0,-15 12,-28 27,-28l163 0c15,0 28,13 28,28l-3 1072c0,15 -12,27 -27,27z"></path>
   <polygon class="fil7" points="601,945 601,889 819,889 819,945 "></polygon>
   <path class="fil8" d="M708 1530c-16,0 -28,-12 -28,-28l0 -325c0,-16 12,-28 28,-28 15,0 27,12 27,28l0 325c0,16 -12,28 -27,28z"></path>
   <path class="fil9" d="M1007 744c-19,0 -144,0 -163,0 -15,0 -28,13 -28,28l0 1018c0,15 13,27 28,27l163 0c15,0 28,-12 28,-27l0 -1018c0,-15 -13,-28 -28,-28z"></path>
   <polygon class="fil10" points="816,1589 816,1645 1035,1645 1035,1589 "></polygon>
   <path class="fil11" d="M924 1039c-16,0 -28,12 -28,28l0 325c0,16 12,28 28,28 15,0 27,-12 27,-28l0 -325c0,-16 -12,-28 -27,-28z"></path>
   <path class="fil4" d="M2199 2013l-1613 0c-13,0 -23,-10 -23,-22l0 -179c0,-12 10,-22 23,-22l1613 0c13,0 23,10 23,22l0 179c0,12 -10,22 -23,22z"></path>
   <g>
    <path class="fil12" d="M1764 1589c-168,0 -328,-83 -423,-228 -5,-8 -3,-17 4,-22 7,-5 17,-3 22,5 15,23 32,44 50,64l72 -69c6,-6 16,-6 22,0 6,6 5,16 -1,22l-71 69c88,82 205,128 325,128 41,0 82,-5 123,-16 253,-68 404,-329 336,-582 -21,-75 -59,-143 -112,-200l-70 70c-3,3 -7,5 -11,5 -4,0 -8,-2 -11,-5 -6,-6 -6,-16 0,-22l70 -70c-20,-19 -42,-36 -66,-52 -7,-4 -9,-14 -4,-21 5,-7 14,-9 21,-4 105,68 180,172 212,291 36,131 18,268 -50,385 -68,117 -177,200 -307,235 -25,7 -50,12 -75,14l0 115c0,9 -7,16 -16,16 -8,0 -15,-7 -15,-16l0 -112c-8,0 -16,0 -25,0z"></path>
    <g>
     <path class="fil13" d="M1765 693c-216,0 -391,175 -391,391 0,215 175,391 391,391 215,0 391,-176 391,-391 0,-216 -176,-391 -391,-391z"></path>
     <path class="fil14" d="M1630 716c-124,46 -218,152 -247,282 44,23 164,58 214,24 42,-27 20,-83 -5,-125 -29,-49 0,-40 30,-110 9,-21 12,-45 8,-71z"></path>
     <path class="fil14" d="M1765 693c-5,0 -10,0 -15,0 -17,83 17,162 115,193 65,21 102,34 118,50 18,16 15,49 16,82 2,82 118,102 155,107 24,-231 -158,-432 -389,-432z"></path>
     <path class="fil14" d="M1374 1074c-5,186 123,349 303,391 12,-24 36,-43 73,-57 86,-31 108,-88 77,-158 -16,-38 -132,-98 -200,-63 -38,20 -46,8 -71,-31 -10,-14 -21,-32 -36,-50 -25,-31 -73,-41 -146,-32z"></path>
     <path class="fil15" d="M1707 1428c-80,0 -155,-25 -218,-67 6,6 12,12 18,17 37,32 81,58 128,75 0,0 1,0 1,0 13,5 27,9 41,12 7,-14 18,-27 33,-37 -1,0 -2,0 -3,0z"></path>
     <path class="fil16" d="M1765 1475c202,0 368,-154 389,-350 -14,-2 -38,-5 -63,-13 -34,179 -192,314 -381,316 -15,10 -26,23 -33,37 28,6 58,10 88,10z"></path>
     <path class="fil15" d="M2156 1084c0,-11 -1,-22 -1,-33 -10,-120 -76,-226 -171,-291 71,71 115,169 115,277 0,25 -3,50 -8,75 25,8 49,11 63,13 1,-8 1,-16 1,-23 1,-1 1,-1 1,-1 0,-6 0,-12 0,-17z"></path>
    </g>
    <path class="fil17" d="M2060 1790l-512 0c-8,0 -15,-7 -15,-16l0 -73c0,-8 7,-15 15,-15l512 0c9,0 15,7 15,15l0 73c0,9 -7,16 -15,16z"></path>
    <path class="fil18" d="M2042 1775l-509 0c0,8 7,15 15,15l512 0c8,0 15,-7 15,-16l0 -73c0,-8 -6,-15 -15,-15l-3 0c0,0 0,0 0,0l0 73c0,9 -7,16 -15,16z"></path>
   </g>
  </g>
 </g>
</svg>